<svg viewBox="0 0 1200 190" xmlns="http://www.w3.org/2000/svg">
  <rect x="0" y="0" width="1200" height="150" fill="#211D33"/>
    <circle cx="15" cy="150" r="15" fill="#211D33"/>
    <circle cx="45" cy="150" r="15" fill="#211D33"/>
    <circle cx="75" cy="150" r="15" fill="#211D33"/>
    <circle cx="105" cy="150" r="15" fill="#211D33"/>
    <circle cx="135" cy="150" r="15" fill="#211D33"/>
    <circle cx="165" cy="150" r="15" fill="#211D33"/>
    <circle cx="195" cy="150" r="15" fill="#211D33"/>
    <circle cx="225" cy="150" r="15" fill="#211D33"/>
    <circle cx="255" cy="150" r="15" fill="#211D33"/>
    <circle cx="285" cy="150" r="15" fill="#211D33"/>
    <circle cx="315" cy="150" r="15" fill="#211D33"/>
    <circle cx="345" cy="150" r="15" fill="#211D33"/>
    <circle cx="375" cy="150" r="15" fill="#211D33"/>
    <circle cx="405" cy="150" r="15" fill="#211D33"/>
    <circle cx="435" cy="150" r="15" fill="#211D33"/>
    <circle cx="465" cy="150" r="15" fill="#211D33"/>
    <circle cx="495" cy="150" r="15" fill="#211D33"/>
    <circle cx="525" cy="150" r="15" fill="#211D33"/>
    <circle cx="555" cy="150" r="15" fill="#211D33"/>
    <circle cx="585" cy="150" r="15" fill="#211D33"/>
    <circle cx="615" cy="150" r="15" fill="#211D33"/>
    <circle cx="645" cy="150" r="15" fill="#211D33"/>
    <circle cx="675" cy="150" r="15" fill="#211D33"/>
    <circle cx="705" cy="150" r="15" fill="#211D33"/>
    <circle cx="735" cy="150" r="15" fill="#211D33"/>
    <circle cx="765" cy="150" r="15" fill="#211D33"/>
    <circle cx="795" cy="150" r="15" fill="#211D33"/>
    <circle cx="825" cy="150" r="15" fill="#211D33"/>
    <circle cx="855" cy="150" r="15" fill="#211D33"/>
    <circle cx="885" cy="150" r="15" fill="#211D33"/>
    <circle cx="915" cy="150" r="15" fill="#211D33"/>
    <circle cx="945" cy="150" r="15" fill="#211D33"/>
    <circle cx="975" cy="150" r="15" fill="#211D33"/>
    <circle cx="1005" cy="150" r="15" fill="#211D33"/>
    <circle cx="1035" cy="150" r="15" fill="#211D33"/>
    <circle cx="1065" cy="150" r="15" fill="#211D33"/>
    <circle cx="1095" cy="150" r="15" fill="#211D33"/>
    <circle cx="1125" cy="150" r="15" fill="#211D33"/>
    <circle cx="1155" cy="150" r="15" fill="#211D33"/>
    <circle cx="1185" cy="150" r="15" fill="#211D33"/>
  <text x="600.0" y="70" font-family="Georgia, 'Times New Roman', serif" font-size="42" font-weight="bold" fill="#C9BFE8" text-anchor="middle">Hi, I'm Soukayna</text>
  <text x="600.0" y="108" font-family="Georgia, 'Times New Roman', serif" font-size="17" font-style="italic" fill="#847AA3" text-anchor="middle">Software Engineer · .NET · Java · Angular · Azure</text>
</svg>